<svg width="32" height="37" viewBox="0 0 32 37" fill="none" xmlns="http://www.w3.org/2000/svg">
<path d="M30.8538 28.1584C30.2919 29.408 29.6268 30.5582 28.8562 31.6157C27.8059 33.0574 26.9458 34.0553 26.2831 34.6094C25.2556 35.519 24.1548 35.9848 22.976 36.0113C22.1298 36.0113 21.1092 35.7795 19.9212 35.3093C18.7294 34.8412 17.634 34.6094 16.6325 34.6094C15.5822 34.6094 14.4557 34.8412 13.2507 35.3093C12.0439 35.7795 11.0718 36.0246 10.3285 36.0488C9.19808 36.0952 8.07135 35.6161 6.94667 34.6094C6.22885 34.0067 5.33099 32.9735 4.25539 31.5098C3.10137 29.9467 2.1526 28.1342 1.40931 26.0677C0.613281 23.8357 0.214233 21.6744 0.214233 19.5819C0.214233 17.1849 0.75226 15.1176 1.82992 13.3852C2.67686 11.9937 3.8036 10.896 5.2138 10.0902C6.624 9.28439 8.14772 8.87375 9.78863 8.84748C10.6865 8.84748 11.8639 9.11484 13.3271 9.64028C14.7861 10.1675 15.723 10.4348 16.1337 10.4348C16.4408 10.4348 17.4815 10.1222 19.2458 9.49898C20.9143 8.921 22.3224 8.68168 23.476 8.77595C26.6018 9.0188 28.9503 10.205 30.512 12.3421C27.7164 13.9727 26.3335 16.2566 26.361 19.1865C26.3863 21.4686 27.2463 23.3677 28.9365 24.8756C29.7025 25.5754 30.5579 26.1163 31.5097 26.5004C31.3033 27.0767 31.0854 27.6286 30.8538 28.1584ZM23.6847 1.00123C23.6847 2.78995 23.0058 4.46007 21.6527 6.00592C20.0198 7.84363 18.0448 8.90555 15.903 8.73798C15.8757 8.52339 15.8599 8.29754 15.8599 8.06021C15.8599 6.34304 16.6364 4.50533 18.0154 3.00275C18.7039 2.24197 19.5795 1.60939 20.6413 1.10477C21.7009 0.607683 22.7031 0.332781 23.6457 0.285706C23.6732 0.524829 23.6847 0.763968 23.6847 1.00121V1.00123Z" fill="#006D77"/>
</svg>
