<svg width="30" height="30" viewBox="0 0 30 30" fill="none" xmlns="http://www.w3.org/2000/svg">
<path d="M6.0336 12.9828C8.44962 17.7072 12.2928 21.5504 17.0172 23.9664L20.6844 20.2992C20.9025 20.0809 21.1773 19.9278 21.4777 19.8572C21.7781 19.7866 22.0923 19.8013 22.3848 19.8996C24.3049 20.5306 26.3133 20.8515 28.3344 20.85C28.7759 20.8516 29.1988 21.0277 29.5108 21.34C29.8229 21.6523 29.9987 22.0753 30 22.5168V28.3332C29.9987 28.7749 29.8227 29.1981 29.5104 29.5104C29.1981 29.8227 28.7749 29.9987 28.3332 30C24.6123 30.0003 20.9279 29.2677 17.4902 27.8439C14.0525 26.4201 10.9289 24.3331 8.2979 21.7021C5.66686 19.0711 3.57986 15.9475 2.15609 12.5098C0.73233 9.07214 -0.000315118 5.38766 1.01674e-07 1.6668C0.00126656 1.22513 0.177282 0.801905 0.489594 0.489594C0.801905 0.177282 1.22513 0.00126645 1.6668 0H7.5C7.94167 0.00126645 8.3649 0.177282 8.67721 0.489594C8.98952 0.801905 9.16553 1.22513 9.1668 1.6668C9.164 3.68802 9.48486 5.69664 10.1172 7.6164C10.2116 7.91064 10.2227 8.22528 10.1492 8.52542C10.0757 8.82557 9.92049 9.09949 9.7008 9.3168L6.0336 12.9828Z" fill="white"/>
</svg>
