<svg width="47" height="39" viewBox="0 0 47 39" fill="none" xmlns="http://www.w3.org/2000/svg">
<path d="M45.3689 20.6425C44.1362 17.9948 42.0319 15.8507 39.4079 14.5685C37.121 13.4332 34.6007 12.8473 32.0476 12.8574C29.4944 12.8675 26.9788 13.4732 24.7009 14.6265C23.0939 15.4055 21.6776 16.5281 20.5521 17.9148C19.4267 19.3015 18.6196 20.9185 18.1879 22.6515C17.6145 25.2704 18.0848 28.0098 19.4989 30.2875C20.5687 31.944 21.9745 33.3574 23.6253 34.4359C25.2762 35.5145 27.1352 36.2342 29.0819 36.5485C31.8729 37.0396 34.7411 36.8513 37.4439 35.9995C39.0669 36.6275 40.5129 37.6455 42.0859 38.3995C41.6789 37.0365 41.2459 35.6895 40.7859 34.3475C42.6035 33.1397 44.0905 31.4969 45.1119 29.5685C45.8175 28.1939 46.2068 26.679 46.2513 25.1346C46.2957 23.5901 45.9943 22.0553 45.3689 20.6425ZM26.2379 2.39646C23.8154 1.06988 21.1386 0.273066 18.385 0.0587789C15.6313 -0.155508 12.8635 0.217623 10.2649 1.15346C6.81144 2.34595 3.86041 4.66711 1.88791 7.74246C1.01199 9.13989 0.424489 10.6984 0.160011 12.3263C-0.104466 13.9542 -0.0405783 15.6186 0.347913 17.2215C1.29926 20.7471 3.54449 23.7847 6.63591 25.7285C6.05691 27.3705 5.50691 29.0065 4.98791 30.6575C6.86791 29.6745 8.74691 28.6465 10.6289 27.6485C12.9062 28.3824 15.2924 28.7207 17.6839 28.6485C17.0595 26.8204 16.8906 24.8676 17.1919 22.9595C17.6735 20.3111 19.0265 17.8996 21.0359 16.1085C22.7342 14.6083 24.7206 13.4702 26.8735 12.7635C29.0265 12.0569 31.3009 11.7966 33.5579 11.9985C33.0876 9.964 32.186 8.05419 30.9142 6.39804C29.6425 4.74189 28.03 3.37799 26.1859 2.39846H26.2379V2.39646ZM29.5789 21.6525C29.4674 21.9512 29.2826 22.2171 29.0413 22.4256C28.8001 22.6342 28.5103 22.7786 28.1985 22.8457C27.8868 22.9128 27.5632 22.9003 27.2576 22.8095C26.9519 22.7187 26.674 22.5524 26.4495 22.3259C26.225 22.0995 26.0611 21.8202 25.9729 21.5138C25.8847 21.2073 25.8751 20.8836 25.9448 20.5725C26.0146 20.2614 26.1616 19.9728 26.3722 19.7334C26.5828 19.4939 26.8502 19.3114 27.1499 19.2025C27.4905 19.0867 27.8567 19.0691 28.2068 19.1514C28.5569 19.2338 28.8769 19.4129 29.1301 19.6683C29.3833 19.9238 29.5597 20.2452 29.639 20.596C29.7184 20.9469 29.6976 21.3129 29.5789 21.6525ZM38.8219 21.8295C38.6835 22.0936 38.4861 22.3223 38.2449 22.4977C38.0038 22.6731 37.7254 22.7905 37.4315 22.8408C37.1376 22.8911 36.836 22.8729 36.5503 22.7877C36.2645 22.7025 36.0023 22.5525 35.7839 22.3495C35.4384 21.9499 35.209 21.4633 35.1209 20.9425C35.1792 20.4825 35.3857 20.054 35.7092 19.7218C36.0327 19.3896 36.4556 19.1719 36.9139 19.1015C37.2471 19.0803 37.5801 19.1459 37.8804 19.2918C38.1807 19.4377 38.438 19.6589 38.6274 19.9338C38.8167 20.2088 38.9316 20.5281 38.9608 20.8607C38.99 21.1933 38.9325 21.5277 38.7939 21.8315H38.8229L38.8219 21.8295ZM25.0289 9.38846C25.0259 10.1269 24.73 10.8339 24.2062 11.3545C23.6825 11.875 22.9736 12.1665 22.2352 12.165C21.4968 12.1634 20.7891 11.869 20.2675 11.3463C19.7459 10.8237 19.4529 10.1154 19.4529 9.37696C19.4529 8.63854 19.7459 7.93027 20.2675 7.40758C20.7891 6.8849 21.4968 6.59049 22.2352 6.58897C22.9736 6.58745 23.6825 6.87893 24.2062 7.39946C24.73 7.91999 25.0259 8.62704 25.0289 9.36546V9.38846ZM13.3489 9.85846C13.2511 10.2569 13.0514 10.6232 12.7695 10.9213C12.4875 11.2194 12.133 11.4392 11.7406 11.5591C11.3482 11.679 10.9314 11.6949 10.531 11.6053C10.1306 11.5157 9.76028 11.3237 9.4564 11.048C9.15253 10.7722 8.92548 10.4223 8.79748 10.0325C8.66948 9.64266 8.64494 9.22626 8.72624 8.82408C8.80754 8.4219 8.99191 8.04774 9.26128 7.73823C9.53066 7.42872 9.8758 7.19449 10.2629 7.05846C10.6655 6.92151 11.0974 6.89482 11.5137 6.98116C11.9301 7.0675 12.3158 7.26372 12.6307 7.54945C12.9456 7.83519 13.1783 8.20001 13.3046 8.60604C13.4309 9.01208 13.4462 9.44452 13.3489 9.85846Z" fill="#D6D6D6"/>
</svg>
