<svg width="56" height="37" viewBox="0 0 56 37" fill="none" xmlns="http://www.w3.org/2000/svg">
<path d="M49.1364 3.06697C48.7659 2.83695 48.2617 2.60438 47.8758 2.40758L49.0643 1.53351C49.0643 1.53351 49.5608 1.88621 49.1364 3.06697Z" fill="#013D3D"/>
<path d="M48.5369 1.70219L47.6802 2.32835L47.2866 2.61715L29.7262 15.465C29.2447 15.8175 28.6624 16.0076 28.0643 16.0076C27.4662 16.0076 26.8839 15.8175 26.4024 15.465L8.80851 2.5916L8.3866 2.2849L7.52222 1.70219C8.2874 1.32414 9.08346 1.01122 9.90186 0.766773C10.1334 0.702879 10.3649 0.64154 10.599 0.587869C11.7057 0.332575 12.8381 0.20395 13.9743 0.204503H41.9923C43.3703 0.203437 44.7417 0.392671 46.0672 0.766773C46.4514 0.870708 46.8296 0.993385 47.2017 1.1348C47.6561 1.30163 48.1017 1.49099 48.5369 1.70219V1.70219Z" fill="#006D77"/>
<path d="M8.23225 2.3488C7.8335 2.55071 7.28554 2.80884 6.9048 3.04142C6.50605 1.89898 6.98969 1.53351 6.98969 1.53351L8.23225 2.3488Z" fill="#013D3D"/>
<path d="M56 15.0484C56 18.7395 54.5243 22.2794 51.8974 24.8896C49.2705 27.4998 45.7076 28.9665 41.9923 28.9672H41.1613C41.0096 28.9672 40.8604 28.9672 40.7086 28.9672H12.7008C10.0338 28.9666 7.42203 29.7221 5.17224 31.145C2.92244 32.5679 1.12811 34.5991 0 37L0 14.0568C0.16353 11.7528 0.901724 9.52549 2.14801 7.57569C3.3943 5.62589 5.1095 4.01492 7.13892 2.88806L7.24954 2.96473L7.6663 3.26887L7.94414 3.47078L25.7258 16.4976C26.4002 16.9906 27.2155 17.2565 28.0527 17.2565C28.89 17.2565 29.7053 16.9906 30.3796 16.4976L48.416 3.30465L48.9074 2.94429C51.0599 4.16029 52.85 5.92074 54.0957 8.04673C55.3415 10.1727 55.9985 12.5885 56 15.0484V15.0484Z" fill="#006D77"/>
<path d="M49.0643 1.53352L48.1845 2.18013L47.7806 2.4766L29.7725 15.6542C29.2787 16.0165 28.6809 16.2121 28.0669 16.2121C27.453 16.2121 26.8552 16.0165 26.3613 15.6542L8.31205 2.45104L7.87985 2.13412L6.99231 1.53352C7.77669 1.14583 8.5925 0.824369 9.43112 0.572544C9.6678 0.506094 9.90705 0.444756 10.1489 0.388529C11.2843 0.127397 12.4461 -0.00295445 13.6116 5.07971e-05H42.3499C43.7635 -0.00230422 45.1706 0.191244 46.5303 0.5751C46.9248 0.682443 47.3133 0.807676 47.6957 0.950799C48.1588 1.12459 48.6219 1.31883 49.0643 1.53352Z" fill="#006D77"/>
</svg>
