<svg width="36" height="37" viewBox="0 0 36 37" fill="none" xmlns="http://www.w3.org/2000/svg">
<path fill-rule="evenodd" clip-rule="evenodd" d="M35.6222 18.5753C35.6222 17.3073 35.5084 16.0879 35.2971 14.9174H18.4545V21.8349H28.0788C27.6643 24.0703 26.4043 25.9643 24.5103 27.2324V31.7194H30.2898C33.6714 28.6061 35.6222 24.0215 35.6222 18.5753Z" fill="#006D77"/>
<path fill-rule="evenodd" clip-rule="evenodd" d="M18.4546 36.0517C23.2831 36.0517 27.3311 34.4504 30.29 31.7191L24.5105 27.2321C22.9091 28.3051 20.8607 28.9391 18.4546 28.9391C13.7969 28.9391 9.85448 25.7933 8.44821 21.5664H2.47363V26.1998C5.41622 32.0443 11.464 36.0517 18.4546 36.0517Z" fill="#006D77"/>
<path fill-rule="evenodd" clip-rule="evenodd" d="M8.4481 21.5667C8.09044 20.4937 7.88723 19.3476 7.88723 18.1689C7.88723 16.9902 8.09044 15.8441 8.4481 14.7711V10.1378H2.47352C1.26235 12.552 0.571411 15.2832 0.571411 18.1689C0.571411 21.0546 1.26235 23.7858 2.47352 26.2L8.4481 21.5667Z" fill="#006D77"/>
<path fill-rule="evenodd" clip-rule="evenodd" d="M18.4546 7.3983C21.0802 7.3983 23.4375 8.30059 25.2908 10.0726L30.42 4.94344C27.323 2.05776 23.2749 0.285706 18.4546 0.285706C11.464 0.285706 5.41622 4.29315 2.47363 10.1377L8.44821 14.771C9.85448 10.5441 13.7969 7.3983 18.4546 7.3983Z" fill="#006D77"/>
</svg>
