<svg width="25" height="25" viewBox="0 0 25 25" fill="none" xmlns="http://www.w3.org/2000/svg">
<path d="M16 21.5C16 19.567 14.433 18 12.5 18C10.567 18 9 19.567 9 21.5C9 23.433 10.567 25 12.5 25C14.433 25 16 23.433 16 21.5Z" fill="#D6D6D6"/>
<path d="M16 12.5C16 10.567 14.433 9 12.5 9C10.567 9 9 10.567 9 12.5C9 14.433 10.567 16 12.5 16C14.433 16 16 14.433 16 12.5Z" fill="#D6D6D6"/>
<path d="M16 3.5C16 1.567 14.433 0 12.5 0C10.567 0 9 1.567 9 3.5C9 5.433 10.567 7 12.5 7C14.433 7 16 5.433 16 3.5Z" fill="#D6D6D6"/>
</svg>
