<svg width="70" height="70" viewBox="0 0 70 70" fill="none" xmlns="http://www.w3.org/2000/svg">
<path fill-rule="evenodd" clip-rule="evenodd" d="M30.4306 0.295752C31.9268 0.100588 33.452 0 35 0C36.548 0 38.0732 0.100588 39.5694 0.295752C40.3909 0.402905 40.97 1.1557 40.8628 1.97717C40.7557 2.79864 40.0029 3.3777 39.1814 3.27055C37.8135 3.09213 36.4179 3 35 3C33.5821 3 32.1865 3.09213 30.8186 3.27055C29.9971 3.3777 29.2443 2.79864 29.1372 1.97717C29.03 1.1557 29.6091 0.402906 30.4306 0.295752ZM46.4378 3.46742C46.7551 2.70218 47.6327 2.33908 48.398 2.65641C51.2442 3.83669 53.9003 5.38133 56.3083 7.23174C56.9651 7.73652 57.0884 8.67823 56.5836 9.33511C56.0789 9.99198 55.1371 10.1153 54.4803 9.6105C52.2778 7.918 49.8495 6.50606 47.2488 5.42759C46.4836 5.11025 46.1205 4.23266 46.4378 3.46742ZM23.5622 3.46742C23.8795 4.23266 23.5164 5.11026 22.7512 5.42759C20.1505 6.50606 17.7222 7.918 15.5197 9.6105C14.8628 10.1153 13.9211 9.99199 13.4164 9.33511C12.9116 8.67823 13.0349 7.73652 13.6917 7.23174C16.0997 5.38134 18.7558 3.83669 21.602 2.65641C22.3673 2.33908 23.2449 2.70218 23.5622 3.46742ZM60.6649 13.4164C61.3218 12.9116 62.2635 13.0349 62.7683 13.6917C64.6187 16.0997 66.1633 18.7558 67.3436 21.602C67.6609 22.3673 67.2978 23.2449 66.5326 23.5622C65.7673 23.8795 64.8897 23.5164 64.5724 22.7512C63.4939 20.1505 62.082 17.7222 60.3895 15.5197C59.8847 14.8628 60.008 13.9211 60.6649 13.4164ZM9.33511 13.4164C9.99198 13.9211 10.1153 14.8628 9.6105 15.5197C7.918 17.7222 6.50606 20.1505 5.42759 22.7512C5.11025 23.5164 4.23266 23.8795 3.46742 23.5622C2.70218 23.2449 2.33908 22.3673 2.65641 21.602C3.83669 18.7558 5.38133 16.0997 7.23174 13.6917C7.73652 13.0349 8.67823 12.9116 9.33511 13.4164ZM68.0228 29.1372C68.8443 29.03 69.5971 29.6091 69.7042 30.4306C69.8994 31.9268 70 33.452 70 35C70 36.548 69.8994 38.0732 69.7042 39.5694C69.5971 40.3909 68.8443 40.97 68.0228 40.8628C67.2014 40.7557 66.6223 40.0029 66.7294 39.1814C66.9079 37.8135 67 36.4179 67 35C67 33.5821 66.9079 32.1865 66.7294 30.8186C66.6223 29.9971 67.2014 29.2443 68.0228 29.1372ZM1.97717 29.1372C2.79864 29.2443 3.3777 29.9971 3.27055 30.8186C3.09213 32.1865 3 33.5821 3 35C3 36.4179 3.09213 37.8135 3.27055 39.1814C3.3777 40.0029 2.79864 40.7557 1.97717 40.8628C1.1557 40.97 0.402906 40.3909 0.295752 39.5694C0.100588 38.0732 0 36.548 0 35C0 33.452 0.100588 31.9268 0.295752 30.4306C0.402905 29.6091 1.1557 29.03 1.97717 29.1372ZM66.5326 46.4378C67.2978 46.7551 67.6609 47.6327 67.3436 48.398C66.1633 51.2442 64.6187 53.9003 62.7683 56.3083C62.2635 56.9651 61.3218 57.0884 60.6649 56.5836C60.008 56.0789 59.8847 55.1371 60.3895 54.4803C62.082 52.2778 63.4939 49.8495 64.5724 47.2488C64.8898 46.4836 65.7673 46.1205 66.5326 46.4378ZM3.46742 46.4378C4.23266 46.1205 5.11026 46.4836 5.42759 47.2488C6.50606 49.8495 7.918 52.2778 9.6105 54.4803C10.1153 55.1372 9.99199 56.0789 9.33511 56.5836C8.67823 57.0884 7.73652 56.9651 7.23174 56.3083C5.38134 53.9003 3.83669 51.2442 2.65641 48.398C2.33908 47.6327 2.70218 46.7551 3.46742 46.4378ZM13.4164 60.6649C13.9211 60.008 14.8628 59.8847 15.5197 60.3895C17.7222 62.082 20.1505 63.4939 22.7512 64.5724C23.5164 64.8898 23.8795 65.7673 23.5622 66.5326C23.2449 67.2978 22.3673 67.6609 21.602 67.3436C18.7558 66.1633 16.0997 64.6187 13.6917 62.7683C13.0349 62.2635 12.9116 61.3218 13.4164 60.6649ZM56.5836 60.6649C57.0884 61.3218 56.9651 62.2635 56.3083 62.7683C53.9003 64.6187 51.2442 66.1633 48.398 67.3436C47.6327 67.6609 46.7551 67.2978 46.4378 66.5326C46.1205 65.7673 46.4836 64.8897 47.2488 64.5724C49.8495 63.4939 52.2778 62.082 54.4803 60.3895C55.1372 59.8847 56.0789 60.008 56.5836 60.6649ZM29.1372 68.0228C29.2443 67.2014 29.9971 66.6223 30.8186 66.7294C32.1865 66.9079 33.5821 67 35 67C36.4179 67 37.8135 66.9079 39.1814 66.7294C40.0029 66.6223 40.7557 67.2014 40.8628 68.0228C40.97 68.8443 40.3909 69.5971 39.5694 69.7042C38.0732 69.8994 36.548 70 35 70C33.452 70 31.9268 69.8994 30.4306 69.7042C29.6091 69.5971 29.03 68.8443 29.1372 68.0228Z" fill="#D6D6D6"/>
<path d="M42.6428 32.4642H36.5355V26.3572C36.5355 25.9972 36.3925 25.652 36.138 25.3975C35.8835 25.143 35.5383 25 35.1783 25H33.8217C33.4617 25 33.1165 25.143 32.862 25.3975C32.6075 25.652 32.4645 25.9972 32.4645 26.3572V32.4642H26.3572C25.9973 32.4642 25.6521 32.6072 25.3975 32.8617C25.143 33.1163 25 33.4615 25 33.8214V35.1786C25 35.5385 25.143 35.8837 25.3975 36.1383C25.6521 36.3928 25.9973 36.5358 26.3572 36.5358H32.4645V42.6428C32.4645 43.0028 32.6075 43.348 32.862 43.6025C33.1165 43.857 33.4617 44 33.8217 44H35.1789C35.5389 44 35.8841 43.857 36.1386 43.6025C36.3932 43.348 36.5362 43.0028 36.5362 42.6428V36.5351H42.6434C43.0033 36.535 43.3483 36.3919 43.6027 36.1374C43.8571 35.8829 44 35.5378 44 35.178V33.8214C44 33.4615 43.857 33.1163 43.6025 32.8617C43.3479 32.6072 43.0027 32.4642 42.6428 32.4642V32.4642Z" fill="#D6D6D6"/>
</svg>
